<?xml version="1.0" encoding="UTF-8"?>
<svg id="Layer_1" data-name="Layer 1" xmlns="http://www.w3.org/2000/svg" version="1.1" xmlns:xlink="http://www.w3.org/1999/xlink" viewBox="0 0 128 128">
  <defs>
    <style>
      .cls-1 {
        fill: #7dcbec;
      }

      .cls-1, .cls-2, .cls-3, .cls-4, .cls-5, .cls-6, .cls-7, .cls-8, .cls-9, .cls-10, .cls-11, .cls-12, .cls-13, .cls-14, .cls-15, .cls-16, .cls-17, .cls-18, .cls-19, .cls-20, .cls-21, .cls-22, .cls-23, .cls-24, .cls-25, .cls-26, .cls-27, .cls-28, .cls-29, .cls-30, .cls-31, .cls-32, .cls-33 {
        stroke-width: 0px;
      }

      .cls-2 {
        fill: url(#linear-gradient-12);
      }

      .cls-3 {
        fill: url(#linear-gradient-17);
      }

      .cls-4 {
        fill: url(#linear-gradient-19);
      }

      .cls-5 {
        fill: url(#linear-gradient);
      }

      .cls-6 {
        fill: #1969bc;
      }

      .cls-7 {
        fill: #125a9e;
      }

      .cls-8 {
        fill: url(#linear-gradient-6);
      }

      .cls-9 {
        fill: url(#linear-gradient-15);
      }

      .cls-10 {
        fill: url(#linear-gradient-11);
      }

      .cls-11 {
        fill: url(#linear-gradient-5);
      }

      .cls-12 {
        fill: #5ec5ed;
      }

      .cls-13 {
        fill: url(#linear-gradient-13);
      }

      .cls-14 {
        fill: #175fab;
      }

      .cls-15 {
        fill: #2b74b1;
      }

      .cls-16 {
        fill: url(#linear-gradient-16);
      }

      .cls-17 {
        fill: url(#linear-gradient-14);
      }

      .cls-18 {
        fill: url(#linear-gradient-2);
      }

      .cls-19 {
        fill: #079ae1;
      }

      .cls-20 {
        fill: url(#linear-gradient-7);
      }

      .cls-21 {
        fill: url(#linear-gradient-3);
      }

      .cls-22 {
        fill: url(#linear-gradient-9);
      }

      .cls-23 {
        fill: #05a1e6;
      }

      .cls-24 {
        fill: url(#linear-gradient-8);
      }

      .cls-25 {
        fill: url(#linear-gradient-18);
      }

      .cls-26 {
        fill: #fff;
      }

      .cls-27 {
        fill: #3092c4;
      }

      .cls-28 {
        fill: #1d60b5;
      }

      .cls-29 {
        fill: #1e5cb3;
      }

      .cls-30 {
        fill: #14559a;
      }

      .cls-31 {
        fill: url(#linear-gradient-10);
      }

      .cls-32 {
        fill: #127bca;
      }

      .cls-33 {
        fill: url(#linear-gradient-4);
      }
    </style>
    <linearGradient id="linear-gradient" x1="-829.4" y1="183.7" x2="-829" y2="183.7" gradientTransform="translate(27559.1 124201.8) rotate(90) scale(149.7)" gradientUnits="userSpaceOnUse">
      <stop offset="0" stop-color="#0994dc"/>
      <stop offset=".3" stop-color="#66cef5"/>
      <stop offset=".3" stop-color="#66cef5"/>
      <stop offset=".8" stop-color="#127bca"/>
      <stop offset=".8" stop-color="#127bca"/>
      <stop offset="1" stop-color="#127bca"/>
    </linearGradient>
    <linearGradient id="linear-gradient-2" x1="-829.5" y1="183.8" x2="-829.1" y2="183.8" gradientTransform="translate(28286.1 127369.2) rotate(90) scale(153.6)" gradientUnits="userSpaceOnUse">
      <stop offset="0" stop-color="#0e76bc"/>
      <stop offset=".4" stop-color="#36aee8"/>
      <stop offset=".4" stop-color="#36aee8"/>
      <stop offset=".8" stop-color="#00adef"/>
      <stop offset=".8" stop-color="#00adef"/>
      <stop offset="1" stop-color="#00adef"/>
    </linearGradient>
    <linearGradient id="linear-gradient-3" x1="-832.3" y1="195.3" x2="-831.9" y2="195.3" gradientTransform="translate(-23795.7 -101641.3) rotate(-90) scale(122.2)" gradientUnits="userSpaceOnUse">
      <stop offset="0" stop-color="#1c63b7"/>
      <stop offset=".5" stop-color="#33bdf2"/>
      <stop offset="1" stop-color="#33bdf2" stop-opacity=".4"/>
    </linearGradient>
    <linearGradient id="linear-gradient-4" x1="-829.5" y1="184.1" x2="-829.1" y2="184.1" gradientTransform="translate(29418.3 132234.3) rotate(90) scale(159.4)" gradientUnits="userSpaceOnUse">
      <stop offset="0" stop-color="#166ab8"/>
      <stop offset=".4" stop-color="#36aee8"/>
      <stop offset=".4" stop-color="#36aee8"/>
      <stop offset=".8" stop-color="#0798dd"/>
      <stop offset=".8" stop-color="#0798dd"/>
      <stop offset="1" stop-color="#0798dd"/>
    </linearGradient>
    <linearGradient id="linear-gradient-5" x1="-829.6" y1="184.4" x2="-829.2" y2="184.4" gradientTransform="translate(31315.8 140631.2) rotate(90) scale(169.5)" gradientUnits="userSpaceOnUse">
      <stop offset="0" stop-color="#124379"/>
      <stop offset=".4" stop-color="#1487cb"/>
      <stop offset=".4" stop-color="#1487cb"/>
      <stop offset=".8" stop-color="#165197"/>
      <stop offset=".8" stop-color="#165197"/>
      <stop offset="1" stop-color="#165197"/>
    </linearGradient>
    <linearGradient id="linear-gradient-6" x1="333.1" y1="2311.1" x2="335.4" y2="2311.1" gradientTransform="translate(-1309.6 -9313) scale(4)" gradientUnits="userSpaceOnUse">
      <stop offset="0" stop-color="#33bdf2" stop-opacity=".7"/>
      <stop offset="1" stop-color="#1dacd8"/>
    </linearGradient>
    <linearGradient id="linear-gradient-7" x1="-832.4" y1="195" x2="-832" y2="195" gradientTransform="translate(-23107 -99018.3) rotate(-90) scale(119)" gradientUnits="userSpaceOnUse">
      <stop offset="0" stop-color="#136ab4"/>
      <stop offset=".6" stop-color="#59caf5" stop-opacity=".5"/>
      <stop offset="1" stop-color="#59caf5" stop-opacity=".2"/>
    </linearGradient>
    <linearGradient id="linear-gradient-8" x1="324.9" y1="2313.9" x2="333.5" y2="2313.9" gradientTransform="translate(-1309.6 -9313) scale(4)" gradientUnits="userSpaceOnUse">
      <stop offset="0" stop-color="#05a1e6" stop-opacity=".2"/>
      <stop offset="1" stop-color="#05a1e6"/>
    </linearGradient>
    <linearGradient id="linear-gradient-9" x1="324.3" y1="2306.3" x2="324.3" y2="2306.3" xlink:href="#linear-gradient-8"/>
    <linearGradient id="linear-gradient-10" x1="-832.3" y1="196" x2="-832" y2="196" gradientTransform="translate(-23861.6 -101381.7) rotate(-90) scale(121.9)" gradientUnits="userSpaceOnUse">
      <stop offset="0" stop-color="#318ed5"/>
      <stop offset="1" stop-color="#38a7e4"/>
    </linearGradient>
    <linearGradient id="linear-gradient-11" x1="-832.4" y1="196.1" x2="-832" y2="196.1" gradientTransform="translate(-23210.6 -98551.7) rotate(-90) scale(118.5)" gradientUnits="userSpaceOnUse">
      <stop offset="0" stop-color="#05a1e6"/>
      <stop offset="1" stop-color="#05a1e6" stop-opacity=".5"/>
    </linearGradient>
    <linearGradient id="linear-gradient-12" x1="-832.6" y1="197.4" x2="-832.2" y2="197.4" gradientTransform="translate(-19733.8 -83288.2) rotate(-90) scale(100.1)" gradientUnits="userSpaceOnUse">
      <stop offset="0" stop-color="#1959a6"/>
      <stop offset=".5" stop-color="#05a1e6"/>
      <stop offset=".5" stop-color="#05a1e6"/>
      <stop offset=".9" stop-color="#7ec5ea"/>
      <stop offset="1" stop-color="#7ec5ea"/>
    </linearGradient>
    <linearGradient id="linear-gradient-13" x1="-833.8" y1="196.3" x2="-833.4" y2="196.3" gradientTransform="translate(-37228.2 -86688.3) rotate(-100) scale(110.2)" gradientUnits="userSpaceOnUse">
      <stop offset="0" stop-color="#165096"/>
      <stop offset="1" stop-color="#0d82ca"/>
    </linearGradient>
    <linearGradient id="linear-gradient-14" x1="-834.5" y1="201.9" x2="-834.1" y2="201.9" gradientTransform="translate(-11353.7 -47308) rotate(-90) scale(56.7)" gradientUnits="userSpaceOnUse">
      <stop offset="0" stop-color="#05a1e6"/>
      <stop offset=".9" stop-color="#0495d6"/>
      <stop offset="1" stop-color="#0495d6"/>
    </linearGradient>
    <linearGradient id="linear-gradient-15" x1="-830.2" y1="183.4" x2="-829.8" y2="183.4" gradientTransform="translate(4948.1 112815.1) rotate(100) scale(132.8)" gradientUnits="userSpaceOnUse">
      <stop offset="0" stop-color="#38a7e4" stop-opacity=".3"/>
      <stop offset="1" stop-color="#0e88d3"/>
      <stop offset="1" stop-color="#0e88d3"/>
      <stop offset="1" stop-color="#0e88d3"/>
    </linearGradient>
    <linearGradient id="linear-gradient-16" x1="-829.1" y1="183.1" x2="-828.7" y2="183.1" gradientTransform="translate(22759.2 102598.9) rotate(90) scale(123.7)" gradientUnits="userSpaceOnUse">
      <stop offset="0" stop-color="#168cd4"/>
      <stop offset=".5" stop-color="#1c87cc"/>
      <stop offset="1" stop-color="#154b8d"/>
    </linearGradient>
    <linearGradient id="linear-gradient-17" x1="918.7" y1="238.2" x2="919.1" y2="238.2" gradientTransform="translate(-146367.8 -20548.3) rotate(22.5) scale(155.8 -155.8)" gradientUnits="userSpaceOnUse">
      <stop offset="0" stop-color="#97d6ee"/>
      <stop offset=".7" stop-color="#55c1ea"/>
      <stop offset="1" stop-color="#55c1ea"/>
    </linearGradient>
    <linearGradient id="linear-gradient-18" x1="918.4" y1="233.3" x2="918.8" y2="233.3" gradientTransform="translate(-92305.5 73832.8) rotate(-24.4) scale(124.8 -124.8)" gradientUnits="userSpaceOnUse">
      <stop offset="0" stop-color="#7accec"/>
      <stop offset="1" stop-color="#3fb7ed"/>
    </linearGradient>
    <linearGradient id="linear-gradient-19" x1="-829.1" y1="182.9" x2="-828.7" y2="182.9" gradientTransform="translate(22230.5 100353.9) rotate(90) scale(121)" gradientUnits="userSpaceOnUse">
      <stop offset="0" stop-color="#1da7e7"/>
      <stop offset="1" stop-color="#37abe7" stop-opacity="0"/>
    </linearGradient>
  </defs>
  <path class="cls-26" d="M30.8,77.9h-1.7v-10c0-.8,0-1.7.1-2.9h0c-.2.7-.3,1.1-.4,1.4l-5.1,11.4h-.8l-5.1-11.3c-.1-.3-.3-.8-.4-1.5h0c0,.6,0,1.6,0,2.9v9.9h-1.7v-14.8h2.3l4.6,10.3c.3.8.6,1.4.7,1.8h0c.3-.8.5-1.4.7-1.8l4.7-10.3h2.2v14.8h0ZM36.1,77.9h-1.7v-10.6h1.7v10.6ZM36.4,63.5c0,.3-.1.6-.3.8-.2.2-.5.3-.8.3-.3,0-.6-.1-.8-.3-.2-.2-.3-.5-.3-.8s.1-.6.3-.8c.2-.2.5-.3.8-.3s.6.1.8.3c.2.2.3.5.3.8M46.7,77.4c-.8.5-1.8.7-2.9.7s-2.7-.5-3.7-1.5c-.9-1-1.4-2.2-1.4-3.8s.5-3.1,1.5-4.2c1-1.1,2.3-1.6,4-1.6s1.7.2,2.5.5v1.7c-.8-.6-1.6-.8-2.5-.8s-2,.4-2.6,1.1c-.7.8-1.1,1.8-1.1,3.1s.3,2.2,1,2.9c.7.7,1.5,1.1,2.6,1.1s1.8-.3,2.6-.9v1.6s0,0,0,0ZM54.8,69c-.3-.2-.7-.3-1.3-.3s-1.3.3-1.7.9c-.5.7-.8,1.7-.8,2.9v5.4h-1.7v-10.6h1.7v2.2h0c.2-.8.6-1.4,1.1-1.8.5-.4,1-.6,1.6-.6.5,0,.8,0,1,.1v1.8s0,0,0,0ZM64.2,72.6c0-1.4-.3-2.4-.9-3.1-.6-.7-1.4-1-2.5-1s-1.9.3-2.5,1c-.7.7-1,1.8-1,3.1s.3,2.3,1,3c.6.7,1.5,1.1,2.6,1.1s2-.4,2.6-1.1c.6-.7.9-1.7.9-3M66,72.6c0,1.7-.5,3-1.4,4.1-1,1-2.2,1.5-3.9,1.5s-2.9-.5-3.8-1.5c-.9-1-1.4-2.3-1.4-3.9s.5-3.3,1.6-4.3c1-.9,2.2-1.4,3.8-1.4s2.8.5,3.7,1.5c.9,1,1.3,2.3,1.3,4M74.4,75.1c0,.9-.3,1.6-1,2.2-.7.6-1.7.9-2.9.9s-1.9-.2-2.6-.6v-1.8c.8.7,1.7,1,2.8,1s2-.5,2-1.5c0-.4-.2-.8-.4-1-.3-.3-.9-.6-1.7-1-.9-.4-1.5-.8-1.9-1.2-.4-.5-.7-1.1-.7-1.9s.4-1.6,1-2.2c.7-.6,1.6-.9,2.7-.9s1.6.2,2.3.5v1.7c-.7-.5-1.5-.8-2.4-.8s-1,.1-1.3.4c-.3.3-.5.7-.5,1.1,0,.5.1.8.4,1.1.3.2.8.5,1.6.9.9.4,1.6.8,2,1.2.5.5.8,1.2.8,1.9M84.8,72.6c0-1.4-.3-2.4-.9-3.1-.6-.7-1.4-1-2.5-1s-1.9.3-2.5,1c-.7.7-1,1.8-1,3.1s.3,2.3,1,3c.6.7,1.5,1.1,2.6,1.1s2-.4,2.6-1.1c.6-.7.9-1.7.9-3M86.5,72.6c0,1.7-.5,3-1.4,4.1-.9,1-2.2,1.5-3.8,1.5s-2.9-.5-3.8-1.5c-.9-1-1.4-2.3-1.4-3.9s.5-3.3,1.6-4.3c1-.9,2.2-1.4,3.8-1.4s2.8.5,3.7,1.5c.9,1,1.3,2.3,1.3,4M94,63.7c-.3-.2-.7-.3-1.1-.3-1.2,0-1.8.7-1.8,2.2v1.6h2.5v1.4h-2.5v9.2h-1.7v-9.2h-1.8v-1.4h1.8v-1.7c0-1.2.4-2.1,1.1-2.7.6-.6,1.4-.9,2.3-.9s.9,0,1.2.2v1.5ZM100.7,77.8c-.4.2-.9.3-1.6.3-1.8,0-2.8-1-2.8-3.1v-6.3h-1.8v-1.4h1.8v-2.6c.5-.2,1.1-.4,1.7-.6v3.1h2.7v1.4h-2.7v6c0,.7.1,1.2.4,1.5.2.3.6.5,1.2.5s.8-.1,1.1-.3c0,0,0,1.4,0,1.4ZM9,119.3c0,.8-.3,1.5-.9,2.2-.6.6-1.4.9-2.2.9-.8,0-1.6-.3-2.1-.9-.6-.6-.9-1.3-.9-2.2,0-.9.3-1.6.9-2.2.5-.6,1.3-.9,2.1-.9.8,0,1.6.3,2.2.9.6.6.9,1.3.9,2.2M47,121.7h-5.5l-20.1-31c-.5-.8-.9-1.6-1.2-2.4h-.2c.1.8.2,2.6.2,5.3v28.1h-4.6v-38.9h5.9l19.5,30.5c.8,1.2,1.3,2.1,1.6,2.6h.1c-.2-1.1-.3-3-.3-5.7v-27.4h4.5v38.9h0ZM76.2,121.7h-20.6v-38.9h19.7v4.1h-15.2v12.9h14.1v4.1h-14.1v13.6h16.1s0,4.1,0,4.1ZM107.5,86.9h-11.2v34.8h-4.6v-34.8h-11.2v-4.1h27s0,4.1,0,4.1Z"/>
  <path class="cls-5" d="M45.4,15.6c4.4,13.5,6.1,37.4,18.9,37.4s2,0,3-.3c-11.7-2.7-13.1-26.5-20.2-38.8-.6.5-1.1,1-1.7,1.6"/>
  <path class="cls-18" d="M47.1,14c7.1,12.3,8.5,36,20.2,38.8.9-.2,1.9-.4,2.8-.7-10.5-5.1-13.4-28.2-21.5-39.3-.5.4-1,.8-1.5,1.3"/>
  <path class="cls-30" d="M57.4,6.7c-1,0-2,0-3,.3-2.6.5-5.2,1.6-7.9,3.3.8.8,1.4,1.6,2.1,2.4,2.7-2.2,5.4-3.9,8.1-4.9,1-.4,2-.6,3-.8-.8-.2-1.5-.3-2.3-.3"/>
  <path class="cls-21" d="M78.3,47.3c1.1-.9,2.2-1.8,3.2-2.8-4.5-13.4-6.1-37.7-19-37.7s-1.9,0-2.8.3c11.8,2.9,13.3,28.6,18.6,40.3"/>
  <path class="cls-27" d="M59.7,7c-.8-.2-1.5-.3-2.3-.3h5.1c-.9,0-1.9.1-2.8.3"/>
  <path class="cls-6" d="M78,50.1c-.5-.5-1-1-1.5-1.6-2.2,1.5-4.4,2.7-6.5,3.5.8.4,1.6.7,2.4.8.7.1,1.4.2,2.1.2,2.4,0,4.3-.3,6-1.1-.9-.5-1.7-1.1-2.5-1.9"/>
  <path class="cls-33" d="M56.6,7.8c10.6,5.5,11.5,30.6,19.9,40.7.6-.4,1.1-.8,1.7-1.3-5.3-11.7-6.8-37.4-18.6-40.3-1,.2-2,.5-3,.8"/>
  <path class="cls-11" d="M48.6,12.7c8.1,11.1,11,34.1,21.5,39.3,2.2-.8,4.3-1.9,6.5-3.5-8.4-10.2-9.4-35.2-19.9-40.7-2.7,1-5.4,2.7-8.1,4.9"/>
  <path class="cls-8" d="M40.2,15.3c-1.3,2.9-2.6,6.6-4.1,11.6,3.1-4.4,6.2-8.2,9.3-11.2-.4-1.2-.8-2.4-1.4-3.6-1.3,1-2.6,2.1-3.8,3.3"/>
  <path class="cls-15" d="M45.2,11.2c-.4.3-.7.5-1.1.8.5,1.2,1,2.4,1.4,3.6.5-.5,1.1-1.1,1.7-1.6-.6-1-1.2-1.9-1.9-2.8"/>
  <path class="cls-7" d="M46.5,10.3c-.4.3-.9.6-1.3.9.7.9,1.4,1.8,1.9,2.8.5-.4,1-.9,1.5-1.3-.6-.9-1.3-1.7-2.1-2.4"/>
  <path class="cls-20" d="M118.6,5.7c-6,23-18.5,41.6-28.9,46.2h0l-.6.2h0s-.2,0-.2,0h0s-.3.1-.3.1h-.1s-.1,0-.1,0h-.1s-.1,0-.1,0h-.2c0,0,0,0,0,0h-.2s-.1,0-.1,0h-.2s-.2,0-.2,0c.5.2,1,.3,1.5.3,9.9,0,19.9-17.8,36.5-47.4h-6.5s0,0,0,0Z"/>
  <path class="cls-24" d="M33.9,7.6h0s0,0,0,0h.2c0,0,0,0,0,0h0s.2,0,.2,0h.4c0-.1,0-.1,0-.1h.2s0,0,0,0h.2s0,0,0,0h.5c0-.1,0-.2,0-.2h.2s0,0,0,0h.2s0,0,0,0h.3c0,0,0,0,0,0h.2s0,0,0,0h.1s0,0,0,0h.4c-.4,0-.7,0-1.1,0C25.3,6.7,9.9,27.4,3,54.3h1.3c2.1-3.7,4.1-7.4,6-11.2C15.2,24,25.1,11.1,33.9,7.6"/>
  <path class="cls-22" d="M0,0"/>
  <path class="cls-31" d="M10.4,43.1C20.6,23.4,25.4,11,33.9,7.6c-8.8,3.4-18.7,16.4-23.5,35.4"/>
  <path class="cls-32" d="M43.7,9.6c-.2.2-.4.4-.6.6.3.5.6,1.1.9,1.8.4-.3.8-.6,1.1-.8-.4-.6-.9-1.1-1.5-1.6"/>
  <path class="cls-10" d="M15,54.2h-.2s0,0,0,0h-.2s0,0,0,0h-.4s0,0,0,0c10.3-.3,15-5.5,17.4-12.9,1.8-5.7,3.2-10.5,4.5-14.5-4.3,6.1-8.7,13.3-13,21.5-2.1,3.9-5.3,5.5-8,5.9"/>
  <path class="cls-2" d="M15,54.2c2.7-.3,5.9-2,8-5.9,4.4-8.1,8.7-15.4,13-21.5,1.6-4.9,2.9-8.7,4.1-11.6-8.6,8.2-17.2,21.8-25.2,38.9"/>
  <path class="cls-23" d="M10.4,43.1c-2,3.8-4,7.5-6,11.2h3.9c.5-3.8,1.2-7.5,2.1-11.2"/>
  <path class="cls-13" d="M37.2,6.8h0s-.1,0-.1,0h0s-.2,0-.2,0h0s-.3,0-.3,0h-.2s0,0,0,0h-.2s0,0,0,0h-.5c0,.1,0,.2,0,.2h-.2s0,0,0,0h-.2s0,0,0,0h-.4c0,.1-.2.2-.2.2h0s-.2,0-.2,0h0c-8.5,3.4-13.4,15.8-23.5,35.5-.9,3.7-1.7,7.4-2.1,11.2h4.3s1.7,0,1.7,0h.4s0,0,0,0h.2s0,0,0,0h.2c8-17.1,16.6-30.8,25.2-38.9.9-2.1,1.9-3.8,2.9-5-.6-1-1.2-1.9-2-2.5h0s-.1,0-.1,0h-.1c0,0-.1-.1-.1-.1h-.1c0,0-.1-.1-.1-.1h-.2c0,0,0-.1,0-.1h-.2c0,0,0,0,0,0h-.2c0,0,0,0,0,0h-.3c0,0,0,0,0,0h-.2c0,0,0,0,0,0-.2,0-.4,0-.6-.1h0s-.2,0-.2,0h0s-.3,0-.3,0h-.3s-.4,0-.4,0"/>
  <path class="cls-17" d="M95.2,18.4c-2,6.3-3.5,11.5-4.9,15.7,5.4-7.4,10.7-16.7,15.7-27.5-5.9,1.8-9,6.1-10.8,11.7"/>
  <path class="cls-9" d="M90.5,51.5c-.3.1-.6.3-.8.4,10.5-4.7,23-23.2,28.9-46.2h-1.2c-13.7,24.5-18.1,41-26.9,45.8"/>
  <path class="cls-19" d="M83.6,49.5c2.3-2.8,4.1-7.5,6.7-15.3-2.9,4-5.9,7.5-8.8,10.3h0c.6,1.9,1.3,3.6,2.1,5"/>
  <path class="cls-6" d="M83.6,49.5c-.8.9-1.6,1.7-2.5,2.2-.2.1-.4.2-.6.3,1,.5,2,.9,3.2,1h.5s0,0,0,0h.3s.9,0,.9,0h0s.2,0,.2,0h.3s0,0,0,0h0s.2,0,.2,0h.3s0,0,0,0h.5c-1.4-.6-2.5-1.8-3.5-3.4"/>
  <path class="cls-29" d="M64.3,53.1c1,0,2,0,3-.3.9-.2,1.8-.4,2.8-.7,1.4.7,2.9,1,4.5,1h-10.2ZM74.6,53.1c2.4,0,4.3-.3,6-1.1,1,.5,2.1.9,3.2,1h.5s0,0,0,0h.3s.3,0,.3,0c0,0-10.3,0-10.3,0Z"/>
  <path class="cls-28" d="M84.8,53.1h.7s.2,0,.2,0h.3s0,0,0,0h0s.2,0,.2,0h0s.2,0,.2,0h.5c.5,0,1,.2,1.5.2h-3.8s0,0,0,0Z"/>
  <path class="cls-14" d="M81.5,44.5h0c-1,1-2.1,1.9-3.2,2.8-.6.4-1.1.9-1.7,1.3.5.6.9,1.1,1.5,1.6.8.7,1.6,1.4,2.5,1.9.2,0,.4-.2.6-.3.9-.5,1.7-1.3,2.5-2.2-.8-1.4-1.5-3.1-2.1-5"/>
  <path class="cls-16" d="M113.5,5.7h-7.1s-.4,1-.4,1c-5,10.7-10.3,20.1-15.7,27.5-2.5,7.8-4.4,12.5-6.7,15.3,1,1.7,2.1,2.8,3.5,3.3h.1s0,0,0,0h0s.2,0,.2,0h0s.2,0,.2,0h0s.2,0,.2,0h.1s.1,0,.1,0h.1s.1,0,.1,0h.3c0,0,0-.1,0-.1h.2c0,0,0,0,0,0l.6-.2h0c.3-.1.5-.3.8-.4,8.8-4.9,13.2-21.3,26.9-45.8h-3.8,0s0,0,0,0Z"/>
  <path class="cls-1" d="M37.6,6.8h0s.2,0,.2,0h.3s0,0,0,0h.2s0,0,0,0h.6c0,.1,0,.1,0,.1h.2c0,0,0,0,0,0h.3c0,0,0,0,0,0h.2c0,0,0,.1,0,.1h.2c0,0,0,.1,0,.1h.2c0,0,.1.1.1.1h.1c0,0,.1.1.1.1h.1c1,.6,1.9,1.2,2.7,2,.3-.3.6-.6,1-.9-1.8-1.3-3.9-2-6.2-2s-.5,0-.8,0"/>
  <path class="cls-12" d="M43.7,9.6c.5.5,1,1,1.5,1.6.4-.3.9-.6,1.3-.9-.6-.6-1.2-1.1-1.8-1.6-.3.3-.7.6-1,.9"/>
  <path class="cls-3" d="M37.3,6.8h.8c2.4,0,4.4.7,6.2,2,1.9-1.5,4.2-2,7.5-2h-15.6,1.1"/>
  <path class="cls-25" d="M51.8,6.8c-3.2,0-5.5.5-7.5,2,.6.4,1.2,1,1.8,1.5,2.7-1.7,5.3-2.8,7.9-3.3,1-.2,2-.3,3-.3h-5.3s0,0,0,0Z"/>
  <path class="cls-4" d="M90.3,34.2c1.4-4.3,3-9.4,4.9-15.7,1.8-5.7,4.9-9.9,10.8-11.7l.5-1c-9.6.6-14.1,5.5-16.3,12.7-3.9,12.6-6.3,20.8-8.6,26,2.9-2.8,5.9-6.3,8.8-10.3"/>
</svg>